<svg width="30" height="26" viewBox="0 0 30 26" fill="none" xmlns="http://www.w3.org/2000/svg">
    <mask id="path-1-inside-1_1824_920" fill="white">
        <path
            d="M18.9368 2.1407L12.1277 9.67124L10.0303 7.4465C8.58086 6.0781 5.54419 4.38836 2.27021 7.89145C-1.00378 11.3945 -0.0870371 14.6509 1.02134 16.1105L7.41585 23.2262C8.09793 24.0473 10.0248 25.6893 12.2757 25.6893C14.5265 25.6893 16.6239 24.0473 17.3913 23.2262C18.4144 22.0403 25.4848 14.292 27.1218 12.5405C30.593 9.0397 31.2143 6.24588 27.3776 2.1407C24.3082 -1.14345 20.4751 0.589372 18.9368 2.1407Z" />
    </mask>
    <path
        d="M12.1277 9.67124L9.33301 12.3059L12.1866 15.3327L14.9765 12.2472L12.1277 9.67124ZM18.9368 2.1407L16.2095 -0.563606L16.1473 -0.50084L16.088 -0.435278L18.9368 2.1407ZM27.3776 2.1407L24.5715 4.76324V4.76324L27.3776 2.1407ZM27.1218 12.5405L24.3945 9.83617L24.3545 9.87647L24.3158 9.91794L27.1218 12.5405ZM17.3913 23.2262L20.1973 25.8488L20.2495 25.7929L20.2994 25.7351L17.3913 23.2262ZM7.41585 23.2262L10.3702 20.7719L10.3225 20.7145L10.2726 20.659L7.41585 23.2262ZM1.02134 16.1105L-2.03749 18.4333L-1.9415 18.5597L-1.83541 18.6778L1.02134 16.1105ZM2.27021 7.89145L5.07627 10.514H5.07627L2.27021 7.89145ZM10.0303 7.4465L12.8249 4.81181L12.7482 4.73048L12.667 4.65375L10.0303 7.4465ZM14.9765 12.2472L21.7857 4.71667L16.088 -0.435278L9.27879 7.09526L14.9765 12.2472ZM21.6642 4.845C21.7584 4.74996 21.9668 4.57897 22.2664 4.42079C22.5595 4.266 22.8562 4.16771 23.12 4.13047C23.3702 4.09514 23.5731 4.11578 23.7517 4.17607C23.9206 4.2331 24.2049 4.37089 24.5715 4.76324L30.1837 -0.481844C27.7397 -3.09677 24.74 -3.85601 22.0461 -3.47568C19.5732 -3.12655 17.4873 -1.85233 16.2095 -0.563606L21.6642 4.845ZM24.5715 4.76324C26.2034 6.50933 26.1635 7.22781 26.1578 7.31248C26.1441 7.51866 25.9762 8.24099 24.3945 9.83617L29.8492 15.2448C31.7387 13.3392 33.617 10.9142 33.8225 7.822C34.0361 4.60827 32.3885 1.87725 30.1837 -0.481844L24.5715 4.76324ZM24.3158 9.91794C22.6745 11.674 15.5596 19.4696 14.4831 20.7174L20.2994 25.7351C21.2692 24.611 28.2951 16.91 29.9279 15.163L24.3158 9.91794ZM14.5852 20.6037C14.4581 20.7397 14.0455 21.1115 13.49 21.4276C12.9221 21.7509 12.5004 21.8485 12.2757 21.8485V29.5301C14.3018 29.5301 16.0543 28.8068 17.2896 28.1037C18.5374 27.3935 19.5571 26.5338 20.1973 25.8488L14.5852 20.6037ZM12.2757 21.8485C12.0723 21.8485 11.7168 21.7645 11.2453 21.4793C10.7716 21.1928 10.444 20.8608 10.3702 20.7719L4.46153 25.6805C5.06978 26.4127 6.04663 27.3123 7.2696 28.052C8.49482 28.7931 10.2282 29.5301 12.2757 29.5301V21.8485ZM10.2726 20.659L3.8781 13.5433L-1.83541 18.6778L4.5591 25.7934L10.2726 20.659ZM4.08018 13.7878C4.00594 13.69 3.82774 13.3564 3.84157 12.8784C3.85292 12.4864 4.00056 11.665 5.07627 10.514L-0.535852 5.26891C-2.73413 7.62102 -3.76511 10.1793 -3.8368 12.6562C-3.90599 15.047 -3.07163 17.0715 -2.03749 18.4333L4.08018 13.7878ZM5.07627 10.514C5.58732 9.96717 5.94552 9.77526 6.10941 9.70848C6.25621 9.64866 6.33614 9.65095 6.39455 9.65768C6.60175 9.68157 6.98655 9.85499 7.39354 10.2393L12.667 4.65375C11.6246 3.66961 9.76634 2.31396 7.27436 2.02665C4.52385 1.70953 1.79214 2.77801 -0.535852 5.26891L5.07627 10.514ZM7.2356 10.0812L9.33301 12.3059L14.9223 7.03654L12.8249 4.81181L7.2356 10.0812Z"
        fill="url(#paint0_linear_1824_920)" mask="url(#path-1-inside-1_1824_920)" />
    <defs>
        <linearGradient id="paint0_linear_1824_920" x1="11.6462" y1="23.9714" x2="40.5377"
            y2="-6.852" gradientUnits="userSpaceOnUse">
            <stop stop-color="#01FFC2" />
            <stop offset="1" stop-color="#34AC8F" />
        </linearGradient>
    </defs>
</svg> 